<svg width="24" height="24" viewBox="0 0 24 24" fill="none" xmlns="http://www.w3.org/2000/svg">
<path fill-rule="evenodd" clip-rule="evenodd" d="M16.3344 2.7502H7.66537C4.64437 2.7502 2.75037 4.8892 2.75037 7.9162V16.0842C2.75037 19.1112 4.63537 21.2502 7.66537 21.2502H16.3334C19.3644 21.2502 21.2504 19.1112 21.2504 16.0842V7.9162C21.2504 4.8892 19.3644 2.7502 16.3344 2.7502Z" stroke="#898CA6" stroke-width="1.5" stroke-linecap="round" stroke-linejoin="round"/>
<path fill-rule="evenodd" clip-rule="evenodd" d="M10.6923 12.0002C10.6923 13.0222 9.86326 13.8522 8.84026 13.8522C7.81826 13.8522 6.98926 13.0222 6.98926 12.0002C6.98926 10.9782 7.81826 10.1482 8.84026 10.1482C9.86326 10.1482 10.6923 10.9782 10.6923 12.0002Z" stroke="#898CA6" stroke-width="1.5" stroke-linecap="round" stroke-linejoin="round"/>
<path d="M10.6923 12.0002H17.0103V13.8522" stroke="#898CA6" stroke-width="1.5" stroke-linecap="round" stroke-linejoin="round"/>
<path d="M14.1816 13.8517V11.9997" stroke="#898CA6" stroke-width="1.5" stroke-linecap="round" stroke-linejoin="round"/>
</svg>
