<svg width="32" height="32" viewBox="0 0 32 32" fill="none" xmlns="http://www.w3.org/2000/svg">
<path d="M16 31C24.2843 31 31 24.2843 31 16C31 7.71573 24.2843 1 16 1C7.71573 1 1 7.71573 1 16C1 24.2843 7.71573 31 16 31Z" fill="white" stroke="#F2F2F2"/>
<path d="M15.9185 21.9129L15.9185 11.1085L12.1298 14.5197C11.9414 14.688 11.6523 14.6717 11.484 14.4833C11.3157 14.2949 11.332 14.0057 11.5204 13.8374L16.0686 9.744L16.0868 9.73036L16.1118 9.70989L16.1323 9.69624L16.1619 9.67805L16.1892 9.66441H16.2119H16.246H16.2733H16.296C16.3074 9.66441 16.3188 9.66441 16.3302 9.66441C16.3415 9.66441 16.3506 9.63257 16.3734 9.63257C16.3961 9.63257 16.3734 9.63257 16.3734 9.63257C16.3734 9.63257 16.3938 9.63257 16.4052 9.63257C16.4166 9.63257 16.4279 9.63257 16.4393 9.63257H16.4621H16.4893H16.5235H16.5462L16.5735 9.64621L16.603 9.66441L16.6235 9.67805L16.6485 9.69852L16.6667 9.71216L21.215 13.8056C21.4034 13.9739 21.4197 14.2631 21.2514 14.4515C21.0831 14.6399 20.7939 14.6561 20.6055 14.4878L16.8282 11.1085V21.9129C16.8282 22.1641 16.6246 22.3677 16.3734 22.3677C16.1222 22.3677 15.9185 22.1641 15.9185 21.9129Z" fill="#005BFF"/>
</svg>
