<svg width="20" height="20" viewBox="0 0 20 20" fill="red" xmlns="http://www.w3.org/2000/svg">
<mask id="path-1-inside-1" fill="white">
<path fill-rule="evenodd" clip-rule="evenodd" d="M2.22174 0H6.66521C7.8905 0 8.88695 0.97456 8.88695 2.17293V6.51879C8.88695 7.71717 7.8905 8.69173 6.66521 8.69173H2.22174C0.996449 8.69173 0 7.71717 0 6.51879V2.17293C0 0.97456 0.996449 0 2.22174 0ZM13.3348 0H17.7783C19.0036 0 20 0.97456 20 2.17293V6.51879C20 7.71717 19.0036 8.69173 17.7783 8.69173H13.3348C12.1095 8.69173 11.1131 7.71717 11.1131 6.51879V2.17293C11.1131 0.97456 12.1095 0 13.3348 0ZM6.66521 10.8644H2.22174C0.996449 10.8644 0 11.839 0 13.0373V17.3832C0 18.5816 0.996449 19.5561 2.22174 19.5561H6.66521C7.8905 19.5561 8.88695 18.5816 8.88695 17.3832V13.0373C8.88695 11.839 7.8905 10.8644 6.66521 10.8644ZM13.3348 10.8644H17.7783C19.0036 10.8644 20 11.839 20 13.0373V17.3832C20 18.5816 19.0036 19.5561 17.7783 19.5561H13.3348C12.1095 19.5561 11.1131 18.5816 11.1131 17.3832V13.0373C11.1131 11.839 12.1095 10.8644 13.3348 10.8644Z"/>
</mask>
<path d="M6.66521 -1.5H2.22174V1.5H6.66521V-1.5ZM10.3869 2.17293C10.3869 0.114897 8.68734 -1.5 6.66521 -1.5V1.5C7.09366 1.5 7.38695 1.83422 7.38695 2.17293H10.3869ZM10.3869 6.51879V2.17293H7.38695V6.51879H10.3869ZM6.66521 10.1917C8.68734 10.1917 10.3869 8.57683 10.3869 6.51879H7.38695C7.38695 6.8575 7.09366 7.19173 6.66521 7.19173V10.1917ZM2.22174 10.1917H6.66521V7.19173H2.22174V10.1917ZM-1.5 6.51879C-1.5 8.57683 0.199606 10.1917 2.22174 10.1917V7.19173C1.79329 7.19173 1.5 6.8575 1.5 6.51879H-1.5ZM-1.5 2.17293V6.51879H1.5V2.17293H-1.5ZM2.22174 -1.5C0.199606 -1.5 -1.5 0.114897 -1.5 2.17293H1.5C1.5 1.83422 1.79329 1.5 2.22174 1.5V-1.5ZM17.7783 -1.5H13.3348V1.5H17.7783V-1.5ZM21.5 2.17293C21.5 0.114898 19.8004 -1.5 17.7783 -1.5V1.5C18.2067 1.5 18.5 1.83422 18.5 2.17293H21.5ZM21.5 6.51879V2.17293H18.5V6.51879H21.5ZM17.7783 10.1917C19.8004 10.1917 21.5 8.57683 21.5 6.51879H18.5C18.5 6.8575 18.2067 7.19173 17.7783 7.19173V10.1917ZM13.3348 10.1917H17.7783V7.19173H13.3348V10.1917ZM9.61308 6.51879C9.61308 8.57683 11.3127 10.1917 13.3348 10.1917V7.19173C12.9064 7.19173 12.6131 6.8575 12.6131 6.51879H9.61308ZM9.61308 2.17293V6.51879H12.6131V2.17293H9.61308ZM13.3348 -1.5C11.3127 -1.5 9.61308 0.114897 9.61308 2.17293H12.6131C12.6131 1.83422 12.9064 1.5 13.3348 1.5V-1.5ZM2.22174 12.3644H6.66521V9.3644H2.22174V12.3644ZM1.5 13.0373C1.5 12.6986 1.79329 12.3644 2.22174 12.3644V9.3644C0.199606 9.3644 -1.5 10.9793 -1.5 13.0373H1.5ZM1.5 17.3832V13.0373H-1.5V17.3832H1.5ZM2.22174 18.0561C1.79329 18.0561 1.5 17.7219 1.5 17.3832H-1.5C-1.5 19.4412 0.199606 21.0561 2.22174 21.0561V18.0561ZM6.66521 18.0561H2.22174V21.0561H6.66521V18.0561ZM7.38695 17.3832C7.38695 17.7219 7.09366 18.0561 6.66521 18.0561V21.0561C8.68734 21.0561 10.3869 19.4412 10.3869 17.3832H7.38695ZM7.38695 13.0373V17.3832H10.3869V13.0373H7.38695ZM6.66521 12.3644C7.09366 12.3644 7.38695 12.6986 7.38695 13.0373H10.3869C10.3869 10.9793 8.68734 9.3644 6.66521 9.3644V12.3644ZM17.7783 9.3644H13.3348V12.3644H17.7783V9.3644ZM21.5 13.0373C21.5 10.9793 19.8004 9.3644 17.7783 9.3644V12.3644C18.2067 12.3644 18.5 12.6986 18.5 13.0373H21.5ZM21.5 17.3832V13.0373H18.5V17.3832H21.5ZM17.7783 21.0561C19.8004 21.0561 21.5 19.4412 21.5 17.3832H18.5C18.5 17.7219 18.2067 18.0561 17.7783 18.0561V21.0561ZM13.3348 21.0561H17.7783V18.0561H13.3348V21.0561ZM9.61308 17.3832C9.61308 19.4412 11.3127 21.0561 13.3348 21.0561V18.0561C12.9064 18.0561 12.6131 17.7219 12.6131 17.3832H9.61308ZM9.61308 13.0373V17.3832H12.6131V13.0373H9.61308ZM13.3348 9.3644C11.3127 9.3644 9.61308 10.9793 9.61308 13.0373H12.6131C12.6131 12.6986 12.9064 12.3644 13.3348 12.3644V9.3644Z"  id="zk-icon" mask="url(#path-1-inside-1)"/>
</svg>
