<svg width="20" height="20" viewBox="0 0 20 20" fill="none" xmlns="http://www.w3.org/2000/svg">
<path fill-rule="evenodd" clip-rule="evenodd" d="M10.0474 1.6668C7.12241 1.65498 4.40466 3.1726 2.88377 5.66702C1.36288 8.16145 1.26079 11.2687 2.61466 13.8573L2.7816 14.1827C2.91843 14.4387 2.94705 14.7387 2.86109 15.016C2.62287 15.6487 2.42376 16.2954 2.26489 16.9525C2.26489 17.2858 2.36028 17.4763 2.718 17.4684C3.3516 17.3284 3.97558 17.1482 4.58612 16.9287C4.84907 16.8563 5.12866 16.873 5.38106 16.9763C5.61159 17.0874 6.08061 17.3731 6.09651 17.3731C9.15963 18.9838 12.9007 18.5394 15.4998 16.2562C18.0989 13.9731 19.0166 10.325 17.8064 7.08676C16.5961 3.84847 13.5093 1.69218 10.0474 1.6668V1.6668Z" stroke="#001233" stroke-width="1.5" stroke-linecap="round" stroke-linejoin="round"/>
<ellipse cx="6.07264" cy="10.0001" rx="0.397471" ry="0.396825" fill="#001233" stroke="#001233" stroke-width="1.5" stroke-linecap="round" stroke-linejoin="round"/>
<ellipse cx="10.0474" cy="10.0001" rx="0.397471" ry="0.396825" fill="#001233" stroke="#001233" stroke-width="1.5" stroke-linecap="round" stroke-linejoin="round"/>
<ellipse cx="14.0221" cy="10.0001" rx="0.397472" ry="0.396825" fill="#001233" stroke="#001233" stroke-width="1.5" stroke-linecap="round" stroke-linejoin="round"/>
</svg>
