<svg width="24" height="24" viewBox="0 0 24 24" fill="none" xmlns="http://www.w3.org/2000/svg">
<path fill-rule="evenodd" clip-rule="evenodd" d="M20.6066 7.62357L19.9901 6.54348C19.4686 5.62956 18.3129 5.31428 17.4065 5.83867V5.83867C16.9751 6.0953 16.4602 6.16811 15.9756 6.04104C15.4909 5.91398 15.0762 5.59747 14.8229 5.16133C14.6599 4.8841 14.5724 4.56835 14.5691 4.246V4.246C14.5838 3.72918 14.3907 3.22836 14.0337 2.85763C13.6768 2.48689 13.1865 2.27782 12.6744 2.27803H11.4325C10.9308 2.27803 10.4498 2.47987 10.0959 2.8389C9.74207 3.19793 9.54448 3.68455 9.54689 4.19108V4.19108C9.53202 5.23688 8.6881 6.07677 7.65224 6.07666C7.33299 6.07331 7.02027 5.9849 6.74571 5.82037V5.82037C5.83934 5.29597 4.68361 5.61125 4.1621 6.52517L3.50033 7.62357C2.97945 8.53635 3.28745 9.70256 4.18929 10.2323V10.2323C4.77551 10.574 5.13663 11.2055 5.13663 11.889C5.13663 12.5725 4.77551 13.204 4.18929 13.5458V13.5458C3.2886 14.0719 2.98026 15.2353 3.50033 16.1453V16.1453L4.12584 17.2346C4.37019 17.6797 4.78016 18.0082 5.26505 18.1474C5.74993 18.2865 6.26974 18.2249 6.70945 17.976V17.976C7.14171 17.7213 7.65682 17.6515 8.14028 17.7822C8.62373 17.9128 9.03548 18.233 9.284 18.6716C9.44695 18.9488 9.53451 19.2646 9.53782 19.587V19.587C9.53782 20.6435 10.3861 21.5 11.4325 21.5H12.6744C13.7173 21.5 14.5641 20.6491 14.5691 19.5961V19.5961C14.5666 19.088 14.7655 18.6 15.1213 18.2407C15.4772 17.8814 15.9605 17.6806 16.4637 17.6831C16.7822 17.6917 17.0936 17.7797 17.3702 17.9394V17.9394C18.2743 18.4653 19.4292 18.1543 19.9539 17.2437V17.2437L20.6066 16.1453C20.8592 15.7075 20.9285 15.186 20.7992 14.6963C20.6699 14.2067 20.3526 13.7893 19.9176 13.5366V13.5366C19.4826 13.2839 19.1653 12.8665 19.036 12.3769C18.9066 11.8873 18.976 11.3658 19.2286 10.9279C19.3929 10.6383 19.6308 10.3982 19.9176 10.2323V10.2323C20.814 9.70285 21.1213 8.54345 20.6066 7.63272V7.63272V7.62357Z" stroke="#898CA6" stroke-width="1.5" stroke-linecap="round" stroke-linejoin="round"/>
<ellipse cx="12.058" cy="11.889" rx="2.61081" ry="2.63616" stroke="#898CA6" stroke-width="1.5" stroke-linecap="round" stroke-linejoin="round"/>
</svg>
